<mxfile host="app.diagrams.net" modified="2023-11-08T07:26:23.690Z" agent="Mozilla/5.0 (Windows NT 10.0; Win64; x64) AppleWebKit/537.36 (KHTML, like Gecko) Chrome/119.0.0.0 Safari/537.36" etag="6NLFVnKhj-fW4Kar7k0I" version="22.0.8" type="device">
  <diagram name="PÃ¡gina-1" id="wY6uZcT8hMfS2q6cgCWG">
    <mxGraphModel dx="2022" dy="668" grid="1" gridSize="10" guides="1" tooltips="1" connect="1" arrows="1" fold="1" page="1" pageScale="1" pageWidth="827" pageHeight="1169" math="0" shadow="0">
      <root>
        <mxCell id="0" />
        <mxCell id="1" parent="0" />
        <mxCell id="btgjlnelvWsudcuo9mZK-2" style="edgeStyle=orthogonalEdgeStyle;rounded=0;orthogonalLoop=1;jettySize=auto;html=1;entryX=0.5;entryY=0;entryDx=0;entryDy=0;" edge="1" parent="1" source="btgjlnelvWsudcuo9mZK-3">
          <mxGeometry relative="1" as="geometry">
            <mxPoint x="291" y="180" as="targetPoint" />
          </mxGeometry>
        </mxCell>
        <mxCell id="btgjlnelvWsudcuo9mZK-3" value="int main(int argc, char *argv[])" style="ellipse;whiteSpace=wrap;html=1;" vertex="1" parent="1">
          <mxGeometry x="195.5" y="80" width="192" height="70" as="geometry" />
        </mxCell>
        <mxCell id="btgjlnelvWsudcuo9mZK-6" style="edgeStyle=orthogonalEdgeStyle;rounded=0;orthogonalLoop=1;jettySize=auto;html=1;entryX=0.5;entryY=0;entryDx=0;entryDy=0;" edge="1" parent="1" source="btgjlnelvWsudcuo9mZK-7" target="btgjlnelvWsudcuo9mZK-9">
          <mxGeometry relative="1" as="geometry" />
        </mxCell>
        <mxCell id="btgjlnelvWsudcuo9mZK-7" value="int op" style="rounded=0;whiteSpace=wrap;html=1;" vertex="1" parent="1">
          <mxGeometry x="244" y="180" width="100" height="40" as="geometry" />
        </mxCell>
        <mxCell id="btgjlnelvWsudcuo9mZK-8" style="edgeStyle=orthogonalEdgeStyle;rounded=0;orthogonalLoop=1;jettySize=auto;html=1;entryX=0.5;entryY=0;entryDx=0;entryDy=0;exitX=0.502;exitY=0.851;exitDx=0;exitDy=0;exitPerimeter=0;" edge="1" parent="1" source="btgjlnelvWsudcuo9mZK-9" target="btgjlnelvWsudcuo9mZK-11">
          <mxGeometry relative="1" as="geometry" />
        </mxCell>
        <mxCell id="btgjlnelvWsudcuo9mZK-9" value="&quot;&amp;nbsp; &amp;nbsp;M&amp;nbsp; E&amp;nbsp; &amp;nbsp;N&amp;nbsp; &amp;nbsp;U ,&lt;br&gt;1.- OPERACIONES CON CONJUNTOS,&lt;br&gt;2.- ANALISIS DE MATRIZ,&lt;br&gt;3.- ORDENACION DE PALABRAS&lt;br&gt;0.- SALIR,&lt;br&gt;ESCOGE UNA OPCION: &quot;" style="shape=document;whiteSpace=wrap;html=1;boundedLbl=1;" vertex="1" parent="1">
          <mxGeometry x="163" y="260" width="261" height="130" as="geometry" />
        </mxCell>
        <mxCell id="btgjlnelvWsudcuo9mZK-10" value="" style="group" vertex="1" connectable="0" parent="1">
          <mxGeometry x="242" y="392" width="110" height="57" as="geometry" />
        </mxCell>
        <mxCell id="btgjlnelvWsudcuo9mZK-11" value="op" style="shape=parallelogram;perimeter=parallelogramPerimeter;whiteSpace=wrap;html=1;fixedSize=1;" vertex="1" parent="btgjlnelvWsudcuo9mZK-10">
          <mxGeometry y="17" width="104" height="40" as="geometry" />
        </mxCell>
        <mxCell id="btgjlnelvWsudcuo9mZK-12" value="" style="endArrow=classic;html=1;rounded=0;" edge="1" parent="btgjlnelvWsudcuo9mZK-10">
          <mxGeometry width="50" height="50" relative="1" as="geometry">
            <mxPoint x="110" as="sourcePoint" />
            <mxPoint x="82" y="30" as="targetPoint" />
          </mxGeometry>
        </mxCell>
        <mxCell id="btgjlnelvWsudcuo9mZK-13" style="edgeStyle=orthogonalEdgeStyle;rounded=0;orthogonalLoop=1;jettySize=auto;html=1;entryX=0.5;entryY=0;entryDx=0;entryDy=0;" edge="1" parent="1" source="btgjlnelvWsudcuo9mZK-16" target="btgjlnelvWsudcuo9mZK-20">
          <mxGeometry relative="1" as="geometry" />
        </mxCell>
        <mxCell id="btgjlnelvWsudcuo9mZK-14" style="edgeStyle=orthogonalEdgeStyle;rounded=0;orthogonalLoop=1;jettySize=auto;html=1;entryX=0.5;entryY=0;entryDx=0;entryDy=0;" edge="1" parent="1" source="btgjlnelvWsudcuo9mZK-16" target="btgjlnelvWsudcuo9mZK-18">
          <mxGeometry relative="1" as="geometry">
            <Array as="points">
              <mxPoint x="294" y="610" />
              <mxPoint x="75" y="610" />
            </Array>
          </mxGeometry>
        </mxCell>
        <mxCell id="btgjlnelvWsudcuo9mZK-38" style="edgeStyle=orthogonalEdgeStyle;rounded=0;orthogonalLoop=1;jettySize=auto;html=1;entryX=0.5;entryY=0;entryDx=0;entryDy=0;" edge="1" parent="1" source="btgjlnelvWsudcuo9mZK-16" target="btgjlnelvWsudcuo9mZK-37">
          <mxGeometry relative="1" as="geometry">
            <Array as="points">
              <mxPoint x="294" y="610" />
              <mxPoint x="504" y="610" />
            </Array>
          </mxGeometry>
        </mxCell>
        <mxCell id="btgjlnelvWsudcuo9mZK-16" value="op" style="rhombus;whiteSpace=wrap;html=1;" vertex="1" parent="1">
          <mxGeometry x="254" y="482" width="80" height="60" as="geometry" />
        </mxCell>
        <mxCell id="btgjlnelvWsudcuo9mZK-17" style="edgeStyle=orthogonalEdgeStyle;rounded=0;orthogonalLoop=1;jettySize=auto;html=1;entryX=0.5;entryY=0;entryDx=0;entryDy=0;" edge="1" parent="1" source="btgjlnelvWsudcuo9mZK-18" target="btgjlnelvWsudcuo9mZK-30">
          <mxGeometry relative="1" as="geometry" />
        </mxCell>
        <mxCell id="btgjlnelvWsudcuo9mZK-18" value="OPERACIONES CON CONJUNTOS" style="shape=document;whiteSpace=wrap;html=1;boundedLbl=1;" vertex="1" parent="1">
          <mxGeometry x="-30" y="640" width="210" height="60" as="geometry" />
        </mxCell>
        <mxCell id="btgjlnelvWsudcuo9mZK-19" style="edgeStyle=orthogonalEdgeStyle;rounded=0;orthogonalLoop=1;jettySize=auto;html=1;entryX=0.5;entryY=0;entryDx=0;entryDy=0;" edge="1" parent="1" source="btgjlnelvWsudcuo9mZK-20" target="btgjlnelvWsudcuo9mZK-34">
          <mxGeometry relative="1" as="geometry" />
        </mxCell>
        <mxCell id="btgjlnelvWsudcuo9mZK-20" value="ANALISIS DE MATRIZ" style="shape=document;whiteSpace=wrap;html=1;boundedLbl=1;" vertex="1" parent="1">
          <mxGeometry x="204" y="640" width="180" height="60" as="geometry" />
        </mxCell>
        <mxCell id="btgjlnelvWsudcuo9mZK-21" value="Case 1:" style="text;html=1;strokeColor=none;fillColor=none;align=center;verticalAlign=middle;whiteSpace=wrap;rounded=0;" vertex="1" parent="1">
          <mxGeometry x="45" y="580" width="60" height="30" as="geometry" />
        </mxCell>
        <mxCell id="btgjlnelvWsudcuo9mZK-22" value="Case 2:" style="text;html=1;strokeColor=none;fillColor=none;align=center;verticalAlign=middle;whiteSpace=wrap;rounded=0;" vertex="1" parent="1">
          <mxGeometry x="230" y="580" width="60" height="30" as="geometry" />
        </mxCell>
        <mxCell id="btgjlnelvWsudcuo9mZK-23" value="" style="edgeStyle=orthogonalEdgeStyle;rounded=0;orthogonalLoop=1;jettySize=auto;html=1;" edge="1" parent="1" source="btgjlnelvWsudcuo9mZK-11" target="btgjlnelvWsudcuo9mZK-16">
          <mxGeometry relative="1" as="geometry" />
        </mxCell>
        <mxCell id="btgjlnelvWsudcuo9mZK-24" style="edgeStyle=orthogonalEdgeStyle;rounded=0;orthogonalLoop=1;jettySize=auto;html=1;entryX=0.5;entryY=0;entryDx=0;entryDy=0;" edge="1" parent="1" source="btgjlnelvWsudcuo9mZK-26" target="btgjlnelvWsudcuo9mZK-27">
          <mxGeometry relative="1" as="geometry" />
        </mxCell>
        <mxCell id="btgjlnelvWsudcuo9mZK-25" style="edgeStyle=orthogonalEdgeStyle;rounded=0;orthogonalLoop=1;jettySize=auto;html=1;entryX=0.5;entryY=0;entryDx=0;entryDy=0;" edge="1" parent="1" source="btgjlnelvWsudcuo9mZK-26" target="btgjlnelvWsudcuo9mZK-9">
          <mxGeometry relative="1" as="geometry">
            <mxPoint x="294" y="240" as="targetPoint" />
            <Array as="points">
              <mxPoint x="630" y="910" />
              <mxPoint x="630" y="240" />
              <mxPoint x="294" y="240" />
            </Array>
          </mxGeometry>
        </mxCell>
        <mxCell id="btgjlnelvWsudcuo9mZK-26" value="op != 0" style="rhombus;whiteSpace=wrap;html=1;" vertex="1" parent="1">
          <mxGeometry x="254" y="870" width="80" height="80" as="geometry" />
        </mxCell>
        <mxCell id="btgjlnelvWsudcuo9mZK-27" value="return 0" style="ellipse;whiteSpace=wrap;html=1;" vertex="1" parent="1">
          <mxGeometry x="247.5" y="990" width="93" height="60" as="geometry" />
        </mxCell>
        <mxCell id="btgjlnelvWsudcuo9mZK-29" style="edgeStyle=orthogonalEdgeStyle;rounded=0;orthogonalLoop=1;jettySize=auto;html=1;entryX=0.5;entryY=0;entryDx=0;entryDy=0;" edge="1" parent="1" source="btgjlnelvWsudcuo9mZK-30" target="btgjlnelvWsudcuo9mZK-26">
          <mxGeometry relative="1" as="geometry">
            <Array as="points">
              <mxPoint x="75" y="830" />
              <mxPoint x="294" y="830" />
            </Array>
          </mxGeometry>
        </mxCell>
        <mxCell id="btgjlnelvWsudcuo9mZK-30" value="argumentos(argv&lt;span style=&quot;background-color: initial;&quot;&gt;)&lt;/span&gt;" style="rounded=0;whiteSpace=wrap;html=1;" vertex="1" parent="1">
          <mxGeometry x="17.5" y="740" width="115" height="40" as="geometry" />
        </mxCell>
        <mxCell id="btgjlnelvWsudcuo9mZK-31" value="V" style="text;html=1;strokeColor=none;fillColor=none;align=center;verticalAlign=middle;whiteSpace=wrap;rounded=0;" vertex="1" parent="1">
          <mxGeometry x="274" y="950" width="60" height="30" as="geometry" />
        </mxCell>
        <mxCell id="btgjlnelvWsudcuo9mZK-32" value="F" style="text;html=1;strokeColor=none;fillColor=none;align=center;verticalAlign=middle;whiteSpace=wrap;rounded=0;" vertex="1" parent="1">
          <mxGeometry x="310" y="880" width="60" height="30" as="geometry" />
        </mxCell>
        <mxCell id="btgjlnelvWsudcuo9mZK-33" style="edgeStyle=orthogonalEdgeStyle;rounded=0;orthogonalLoop=1;jettySize=auto;html=1;entryX=0.5;entryY=0;entryDx=0;entryDy=0;" edge="1" parent="1" source="btgjlnelvWsudcuo9mZK-34" target="btgjlnelvWsudcuo9mZK-26">
          <mxGeometry relative="1" as="geometry" />
        </mxCell>
        <mxCell id="btgjlnelvWsudcuo9mZK-34" value="matriz()" style="rounded=0;whiteSpace=wrap;html=1;" vertex="1" parent="1">
          <mxGeometry x="243" y="740" width="101" height="40" as="geometry" />
        </mxCell>
        <mxCell id="btgjlnelvWsudcuo9mZK-36" value="Case 3:" style="text;html=1;strokeColor=none;fillColor=none;align=center;verticalAlign=middle;whiteSpace=wrap;rounded=0;" vertex="1" parent="1">
          <mxGeometry x="450" y="580" width="60" height="30" as="geometry" />
        </mxCell>
        <mxCell id="btgjlnelvWsudcuo9mZK-40" style="edgeStyle=orthogonalEdgeStyle;rounded=0;orthogonalLoop=1;jettySize=auto;html=1;entryX=0.5;entryY=0;entryDx=0;entryDy=0;" edge="1" parent="1" source="btgjlnelvWsudcuo9mZK-37" target="btgjlnelvWsudcuo9mZK-39">
          <mxGeometry relative="1" as="geometry" />
        </mxCell>
        <mxCell id="btgjlnelvWsudcuo9mZK-37" value="ORDENACION DE PALABRAS" style="shape=document;whiteSpace=wrap;html=1;boundedLbl=1;" vertex="1" parent="1">
          <mxGeometry x="414" y="640" width="180" height="60" as="geometry" />
        </mxCell>
        <mxCell id="btgjlnelvWsudcuo9mZK-41" style="edgeStyle=orthogonalEdgeStyle;rounded=0;orthogonalLoop=1;jettySize=auto;html=1;entryX=0.5;entryY=0;entryDx=0;entryDy=0;" edge="1" parent="1" source="btgjlnelvWsudcuo9mZK-39" target="btgjlnelvWsudcuo9mZK-26">
          <mxGeometry relative="1" as="geometry">
            <Array as="points">
              <mxPoint x="504" y="830" />
              <mxPoint x="294" y="830" />
            </Array>
          </mxGeometry>
        </mxCell>
        <mxCell id="btgjlnelvWsudcuo9mZK-39" value="ordenacion()" style="rounded=0;whiteSpace=wrap;html=1;" vertex="1" parent="1">
          <mxGeometry x="453.5" y="740" width="101" height="40" as="geometry" />
        </mxCell>
      </root>
    </mxGraphModel>
  </diagram>
</mxfile>
